<svg xmlns="http://www.w3.org/2000/svg" class="checkmark" viewBox="0 0 22 16" width="16" height="12" fill="#374957">
                                <path d="M0.280712 10.5246L4.44671 14.6906C5.00929 15.253 5.77222 15.569 6.56771 15.569C7.3632 15.569 8.12613 15.253 8.68871 14.6906L21.5547 1.82459C21.7369 1.63599 21.8377 1.38339 21.8354 1.12119C21.8331 0.858996 21.7279 0.608184 21.5425 0.422776C21.3571 0.237368 21.1063 0.132199 20.8441 0.129921C20.5819 0.127642 20.3293 0.228437 20.1407 0.410595L7.27471 13.2766C7.08718 13.4641 6.83288 13.5694 6.56771 13.5694C6.30255 13.5694 6.04824 13.4641 5.86071 13.2766L1.69471 9.1106C1.50611 8.92844 1.25351 8.82764 0.991311 8.82992C0.729114 8.8322 0.478301 8.93737 0.292893 9.12278C0.107485 9.30819 0.00231622 9.559 3.78026e-05 9.82119C-0.00224062 10.0834 0.0985538 10.336 0.280712 10.5246Z"/>
                            </svg>

