<svg xmlns="http://www.w3.org/2000/svg" class="feature-icon" viewBox="0 0 41 41" fill="none">
        <path d="M20.5 0.877441C16.5444 0.877441 12.6776 2.05042 9.3886 4.24805C6.09962 6.44568 3.53617 9.56925 2.02242 13.2238C0.508666 16.8783 0.112599 20.8996 0.884303 24.7792C1.65601 28.6589 3.56082 32.2225 6.35787 35.0196C9.15492 37.8166 12.7186 39.7214 16.5982 40.4931C20.4778 41.2649 24.4992 40.8688 28.1537 39.355C31.8082 37.8413 34.9318 35.2778 37.1294 31.9888C39.327 28.6999 40.5 24.8331 40.5 20.8774C40.4943 15.5749 38.3853 10.4911 34.6358 6.74164C30.8863 2.99216 25.8026 0.883177 20.5 0.877441ZM13.8333 14.2108C14.7174 14.2108 15.5652 14.562 16.1904 15.1871C16.8155 15.8122 17.1667 16.6601 17.1667 17.5441C17.1667 19.2108 15.675 19.2108 13.8333 19.2108C11.9917 19.2108 10.5 19.2108 10.5 17.5441C10.5 16.6601 10.8512 15.8122 11.4763 15.1871C12.1014 14.562 12.9493 14.2108 13.8333 14.2108ZM29.9433 27.1208C27.2969 29.3817 23.9763 30.7026 20.5 30.8774C17.0237 30.7026 13.7031 29.3817 11.0567 27.1208C10.7269 26.8264 10.5276 26.4131 10.5026 25.9717C10.4902 25.7532 10.521 25.5344 10.5932 25.3277C10.6654 25.1211 10.7776 24.9307 10.9233 24.7674C11.0691 24.6042 11.2456 24.4712 11.4428 24.3761C11.6399 24.2811 11.8539 24.2258 12.0724 24.2134C12.5137 24.1884 12.9469 24.3397 13.2767 24.6341C15.3137 26.3476 17.844 27.367 20.5 27.5441C23.1576 27.3668 25.6892 26.3462 27.7267 24.6308C27.8902 24.4852 28.0807 24.3733 28.2875 24.3014C28.4942 24.2295 28.7131 24.199 28.9316 24.2117C29.1502 24.2244 29.3641 24.28 29.5611 24.3754C29.7581 24.4707 29.9345 24.6039 30.08 24.7674C30.2256 24.9309 30.3375 25.1215 30.4094 25.3283C30.4813 25.535 30.5118 25.7539 30.4991 25.9724C30.4864 26.1909 30.4308 26.4048 30.3354 26.6019C30.2401 26.7989 30.1068 26.9752 29.9433 27.1208ZM27.1667 19.2108C25.325 19.2108 23.8333 19.2108 23.8333 17.5441C23.8333 16.6601 24.1845 15.8122 24.8097 15.1871C25.4348 14.562 26.2826 14.2108 27.1667 14.2108C28.0507 14.2108 28.8986 14.562 29.5237 15.1871C30.1488 15.8122 30.5 16.6601 30.5 17.5441C30.5 19.2108 29.0083 19.2108 27.1667 19.2108Z" fill="#374957"/>
    </svg>

