<svg xmlns="http://www.w3.org/2000/svg" class="feature-icon" viewBox="0 0 41 41" fill="none">
                <path d="M2.71132 21.5646L8.64465 25.898L6.39132 32.8763C6.02717 33.9586 6.02256 35.1296 6.37817 36.2148C6.73378 37.2999 7.43056 38.2411 8.36465 38.898C9.28274 39.5759 10.3953 39.9391 11.5366 39.9334C12.6778 39.9277 13.7867 39.5534 14.698 38.8663L20.4997 34.5963L26.303 38.8613C27.2194 39.5354 28.326 39.9015 29.4636 39.9071C30.6012 39.9126 31.7113 39.5573 32.6343 38.8921C33.5572 38.227 34.2455 37.2864 34.6001 36.2054C34.9548 35.1245 34.9575 33.9589 34.608 32.8763L32.3547 25.898L38.288 21.5646C39.2032 20.8955 39.8836 19.9542 40.2319 18.8753C40.5802 17.7963 40.5786 16.6349 40.2275 15.5569C39.8763 14.4789 39.1934 13.5395 38.2764 12.8728C37.3593 12.2061 36.2551 11.8462 35.1213 11.8446H27.833L25.6213 4.95129C25.2735 3.86622 24.5901 2.91964 23.6696 2.24806C22.7491 1.57648 21.6391 1.2146 20.4997 1.2146C19.3602 1.2146 18.2502 1.57648 17.3297 2.24806C16.4092 2.91964 15.7258 3.86622 15.378 4.95129L13.1663 11.8446H5.88465C4.75089 11.8462 3.64664 12.2061 2.72962 12.8728C1.8126 13.5395 1.12972 14.4789 0.778519 15.5569C0.42732 16.6349 0.425766 17.7963 0.774078 18.8753C1.12239 19.9542 1.80275 20.8955 2.71798 21.5646H2.71132Z" fill="#374957"/>
            </svg>

