<svg xmlns="http://www.w3.org/2000/svg" class="feature-icon" viewBox="0 0 41 41" fill="none">
        <path d="M0.5 32.0543C0.502646 34.2636 1.38147 36.3817 2.9437 37.9439C4.50593 39.5061 6.62401 40.3849 8.83333 40.3876H32.1667C34.376 40.3849 36.4941 39.5061 38.0563 37.9439C39.6185 36.3817 40.4974 34.2636 40.5 32.0543V17.0543H0.5V32.0543ZM28.8333 24.5543C29.3278 24.5543 29.8111 24.7009 30.2223 24.9756C30.6334 25.2503 30.9538 25.6407 31.143 26.0976C31.3322 26.5544 31.3818 27.057 31.2853 27.542C31.1888 28.0269 30.9507 28.4724 30.6011 28.822C30.2515 29.1717 29.806 29.4098 29.3211 29.5062C28.8361 29.6027 28.3334 29.5532 27.8766 29.364C27.4198 29.1747 27.0294 28.8543 26.7547 28.4432C26.48 28.0321 26.3333 27.5487 26.3333 27.0543C26.3333 26.3912 26.5967 25.7553 27.0656 25.2865C27.5344 24.8177 28.1703 24.5543 28.8333 24.5543ZM20.5 24.5543C20.9945 24.5543 21.4778 24.7009 21.8889 24.9756C22.3 25.2503 22.6205 25.6407 22.8097 26.0976C22.9989 26.5544 23.0484 27.057 22.952 27.542C22.8555 28.0269 22.6174 28.4724 22.2678 28.822C21.9181 29.1717 21.4727 29.4098 20.9877 29.5062C20.5028 29.6027 20.0001 29.5532 19.5433 29.364C19.0865 29.1747 18.696 28.8543 18.4213 28.4432C18.1466 28.0321 18 27.5487 18 27.0543C18 26.3912 18.2634 25.7553 18.7322 25.2865C19.2011 24.8177 19.837 24.5543 20.5 24.5543ZM12.1667 24.5543C12.6611 24.5543 13.1445 24.7009 13.5556 24.9756C13.9667 25.2503 14.2871 25.6407 14.4764 26.0976C14.6656 26.5544 14.7151 27.057 14.6186 27.542C14.5222 28.0269 14.2841 28.4724 13.9344 28.822C13.5848 29.1717 13.1393 29.4098 12.6544 29.5062C12.1694 29.6027 11.6668 29.5532 11.21 29.364C10.7531 29.1747 10.3627 28.8543 10.088 28.4432C9.81329 28.0321 9.66667 27.5487 9.66667 27.0543C9.66667 26.3912 9.93006 25.7553 10.3989 25.2865C10.8677 24.8177 11.5036 24.5543 12.1667 24.5543Z" fill="#374957"/>
        <path d="M32.1667 3.72078H30.5V2.05412C30.5 1.61209 30.3244 1.18817 30.0118 0.875607C29.6993 0.563046 29.2754 0.387451 28.8333 0.387451C28.3913 0.387451 27.9674 0.563046 27.6548 0.875607C27.3423 1.18817 27.1667 1.61209 27.1667 2.05412V3.72078H13.8333V2.05412C13.8333 1.61209 13.6577 1.18817 13.3452 0.875607C13.0326 0.563046 12.6087 0.387451 12.1667 0.387451C11.7246 0.387451 11.3007 0.563046 10.9882 0.875607C10.6756 1.18817 10.5 1.61209 10.5 2.05412V3.72078H8.83333C6.62401 3.72343 4.50593 4.60225 2.9437 6.16448C1.38147 7.72671 0.502646 9.84479 0.5 12.0541L0.5 13.7208H40.5V12.0541C40.4974 9.84479 39.6185 7.72671 38.0563 6.16448C36.4941 4.60225 34.376 3.72343 32.1667 3.72078Z" fill="#374957"/>
    </svg>

