<svg xmlns="http://www.w3.org/2000/svg" viewBox="0 0 25 24" fill="#374957" width="24" height="24">
                                    <path d="M17.081 2.14024L10.816 0.0512408C10.6109 -0.0170803 10.3891 -0.0170803 10.184 0.0512408L3.919 2.14024C2.92291 2.47112 2.05642 3.1075 1.44265 3.95895C0.828874 4.8104 0.499038 5.83363 0.500002 6.88324V12.0002C0.500002 19.5632 9.7 23.7402 10.094 23.9142C10.2218 23.971 10.3601 24.0004 10.5 24.0004C10.6399 24.0004 10.7782 23.971 10.906 23.9142C11.3 23.7402 20.5 19.5632 20.5 12.0002V6.88324C20.501 5.83363 20.1711 4.8104 19.5574 3.95895C18.9436 3.1075 18.0771 2.47112 17.081 2.14024ZM13.5 12.0002H11.5V14.0002C11.5 14.2655 11.3946 14.5198 11.2071 14.7073C11.0196 14.8949 10.7652 15.0002 10.5 15.0002C10.2348 15.0002 9.98043 14.8949 9.7929 14.7073C9.60536 14.5198 9.5 14.2655 9.5 14.0002V12.0002H7.5C7.23479 12.0002 6.98043 11.8949 6.7929 11.7073C6.60536 11.5198 6.5 11.2655 6.5 11.0002C6.5 10.735 6.60536 10.4807 6.7929 10.2931C6.98043 10.1056 7.23479 10.0002 7.5 10.0002H9.5V8.00024C9.5 7.73503 9.60536 7.48067 9.7929 7.29314C9.98043 7.1056 10.2348 7.00024 10.5 7.00024C10.7652 7.00024 11.0196 7.1056 11.2071 7.29314C11.3946 7.48067 11.5 7.73503 11.5 8.00024V10.0002H13.5C13.7652 10.0002 14.0196 10.1056 14.2071 10.2931C14.3946 10.4807 14.5 10.735 14.5 11.0002C14.5 11.2655 14.3946 11.5198 14.2071 11.7073C14.0196 11.8949 13.7652 12.0002 13.5 12.0002Z"/>
                                </svg>

