<svg xmlns="http://www.w3.org/2000/svg" viewBox="0 0 25 24" fill="#374957" width="24" height="24">
                                    <path d="M0.5 19.0001C0.501588 20.3257 1.02888 21.5966 1.96622 22.5339C2.90356 23.4712 4.17441 23.9985 5.5 24.0001H19.5C20.8256 23.9985 22.0964 23.4712 23.0338 22.5339C23.9711 21.5966 24.4984 20.3257 24.5 19.0001V10.0001H0.5V19.0001Z"/>
                                    <path d="M19.5 2H18.5V1C18.5 0.734784 18.3946 0.48043 18.2071 0.292893C18.0196 0.105357 17.7652 0 17.5 0C17.2348 0 16.9804 0.105357 16.7929 0.292893C16.6054 0.48043 16.5 0.734784 16.5 1V2H8.5V1C8.5 0.734784 8.39464 0.48043 8.20711 0.292893C8.01957 0.105357 7.76522 0 7.5 0C7.23478 0 6.98043 0.105357 6.79289 0.292893C6.60536 0.48043 6.5 0.734784 6.5 1V2H5.5C4.17441 2.00159 2.90356 2.52888 1.96622 3.46622C1.02888 4.40356 0.501588 5.67441 0.5 7L0.5 8H24.5V7C24.4984 5.67441 23.9711 4.40356 23.0338 3.46622C22.0964 2.52888 20.8256 2.00159 19.5 2Z"/>
                                </svg>

