<svg xmlns="http://www.w3.org/2000/svg" class="mobile-card-icon" viewBox="0 0 24 25" fill="none">
                            <path d="M19 4.32999H17.9C17.6679 3.2014 17.0538 2.18733 16.1613 1.4587C15.2687 0.730077 14.1522 0.331441 13 0.329987L11 0.329987C9.8478 0.331441 8.73132 0.730077 7.83875 1.4587C6.94618 2.18733 6.3321 3.2014 6.1 4.32999H5C3.67441 4.33157 2.40356 4.85887 1.46622 5.79621C0.528882 6.73354 0.00158786 8.00439 0 9.32999L0 12.33H24V9.32999C23.9984 8.00439 23.4711 6.73354 22.5338 5.79621C21.5964 4.85887 20.3256 4.33157 19 4.32999Z" fill="#374957"/>
                            <path d="M13 15.3299C13 15.5951 12.8946 15.8495 12.7071 16.037C12.5196 16.2245 12.2652 16.3299 12 16.3299C11.7348 16.3299 11.4804 16.2245 11.2929 16.037C11.1054 15.8495 11 15.5951 11 15.3299V14.3299H0V19.3299C0.00158786 20.6555 0.528882 21.9263 1.46622 22.8637C2.40356 23.801 3.67441 24.3283 5 24.3299H19C20.3256 24.3283 21.5964 23.801 22.5338 22.8637C23.4711 21.9263 23.9984 20.6555 24 19.3299V14.3299H13V15.3299Z" fill="#374957"/>
                        </svg>

