<svg xmlns="http://www.w3.org/2000/svg" class="section-icon" viewBox="0 0 40 41" fill="none">
                                <path d="M31.6666 0.329834H8.33336C3.73328 0.335381 0.00554688 4.06312 0 8.66319V31.9966C0.00554688 36.5966 3.73328 40.3244 8.33336 40.3298H31.6667C36.2667 40.3244 39.9945 36.5966 40 31.9965V8.66319C39.9945 4.06312 36.2667 0.335381 31.6666 0.329834ZM33.3334 13.7948L17.91 29.2182C16.6085 30.5202 14.498 30.5206 13.1959 29.2191C13.1956 29.2188 13.1953 29.2185 13.195 29.2182L6.66664 22.6916C6.01445 22.0394 6.01445 20.982 6.66664 20.3299C7.31883 19.6778 8.37617 19.6777 9.02828 20.3299L15.5549 26.8566L30.9799 11.4332C31.6321 10.7833 32.6876 10.7852 33.3374 11.4373C33.9873 12.0895 33.9855 13.145 33.3334 13.7948Z" fill="#374957"/>
                            </svg>

