<svg xmlns="http://www.w3.org/2000/svg" class="section-icon" viewBox="0 0 40 41" fill="none">
                                <path d="M4.74837 39.6799C5.65845 40.0689 6.66462 40.1745 7.63562 39.983C8.60663 39.7916 9.49739 39.3119 10.1917 38.6066L20 28.8516L29.8084 38.6066C30.2657 39.0706 30.8105 39.4393 31.4113 39.6913C32.0121 39.9434 32.6569 40.0738 33.3084 40.0749C33.978 40.073 34.6407 39.9388 35.2584 39.6799C36.1759 39.3086 36.9601 38.6693 37.5087 37.8454C38.0573 37.0215 38.3447 36.0513 38.3334 35.0616V8.76326C38.3307 6.55394 37.4519 4.43586 35.8897 2.87363C34.3274 1.3114 32.2094 0.432578 30 0.429932L10 0.429932C7.79071 0.432578 5.67263 1.3114 4.1104 2.87363C2.54817 4.43586 1.66935 6.55394 1.6667 8.76326V35.0616C1.65595 36.0521 1.94433 37.0228 2.49414 37.8468C3.04395 38.6708 3.82961 39.3097 4.74837 39.6799Z" fill="#374957"/>
                            </svg>

